<svg width="78" height="34" viewBox="0 0 78 34" fill="none" xmlns="http://www.w3.org/2000/svg">
<path d="M27.9217 24.18L29.0017 25.8C26.5717 28.56 24.1417 30.6 21.7117 31.92C19.2817 33.24 16.6717 33.9 13.8817 33.9C10.4317 33.9 7.35674 32.385 4.65674 29.355C1.98674 26.325 0.651738 22.89 0.651738 19.05C0.651738 14.22 2.46674 9.96 6.09674 6.27C9.75674 2.55 14.0017 0.689998 18.8317 0.689998C20.7517 0.689998 23.1517 1.17 26.0317 2.13L25.4917 8.43H23.9617C23.9617 7.32 23.5867 6.45 22.8367 5.82C22.0867 5.19 21.2317 4.8 20.2717 4.65C19.3417 4.47 18.1717 4.38 16.7617 4.38C13.2817 4.38 10.2517 5.4 7.67174 7.44C5.09174 9.48 3.80174 12.27 3.80174 15.81C3.80174 18.39 4.28174 20.685 5.24174 22.695C6.20174 24.705 7.40174 26.25 8.84174 27.33C11.6917 29.43 14.4217 30.48 17.0317 30.48C18.6517 30.48 20.4517 29.955 22.4317 28.905C24.4117 27.855 26.2417 26.28 27.9217 24.18ZM52.9547 23.325H43.6397L43.7747 32.64H41.3447L41.5247 23.325H32.0747V21.165H41.4797L41.5697 11.85H43.5947L43.6397 21.165H52.9547V23.325ZM77.2565 23.325H67.9415L68.0765 32.64H65.6465L65.8265 23.325H56.3765V21.165H65.7815L65.8715 11.85H67.8965L67.9415 21.165H77.2565V23.325Z" fill="white"/>
</svg>
