<svg width="30" height="34" viewBox="0 0 30 34" fill="none" xmlns="http://www.w3.org/2000/svg">
<path d="M28.2235 24.18L29.3035 25.8C26.8735 28.56 24.4435 30.6 22.0135 31.92C19.5835 33.24 16.9735 33.9 14.1835 33.9C10.7335 33.9 7.6585 32.385 4.9585 29.355C2.2885 26.325 0.953496 22.89 0.953496 19.05C0.953496 14.22 2.7685 9.96 6.3985 6.27C10.0585 2.55 14.3035 0.689998 19.1335 0.689998C21.0535 0.689998 23.4535 1.17 26.3335 2.13L25.7935 8.43H24.2635C24.2635 7.32 23.8885 6.45 23.1385 5.82C22.3885 5.19 21.5335 4.8 20.5735 4.65C19.6435 4.47 18.4735 4.38 17.0635 4.38C13.5835 4.38 10.5535 5.4 7.9735 7.44C5.3935 9.48 4.1035 12.27 4.1035 15.81C4.1035 18.39 4.5835 20.685 5.5435 22.695C6.5035 24.705 7.7035 26.25 9.1435 27.33C11.9935 29.43 14.7235 30.48 17.3335 30.48C18.9535 30.48 20.7535 29.955 22.7335 28.905C24.7135 27.855 26.5435 26.28 28.2235 24.18Z" fill="white"/>
</svg>
