<svg width="63" height="63" viewBox="0 0 63 63" fill="none" xmlns="http://www.w3.org/2000/svg">
<g clip-path="url(#clip0_109_286)">
<path d="M42.0501 38.5014C43.2559 37.6769 44.9294 36.9633 44.9294 36.9633C44.9294 36.9633 40.1674 37.8246 35.4301 38.2184C29.6346 38.6982 23.4085 38.7967 20.2831 38.3783C12.888 37.3939 24.3436 34.6746 24.3436 34.6746C24.3436 34.6746 19.9016 34.3793 14.426 37.0125C7.96608 40.1379 30.4221 41.5652 42.0501 38.5014ZM31.5419 34.5516C29.204 29.2975 21.3167 24.6832 31.5419 16.6113C44.2969 6.54609 37.7557 0 37.7557 0C40.4012 10.3975 28.4534 13.5475 24.1344 20.0074C21.1936 24.4248 25.5741 29.1621 31.5419 34.5516ZM45.643 12.8707C45.6553 12.8707 24.0852 18.2602 34.3842 30.1219C37.4235 33.6164 33.5844 36.7664 33.5844 36.7664C33.5844 36.7664 41.2995 32.7797 37.7557 27.7963C34.4458 23.1451 31.911 20.8318 45.643 12.8707ZM44.8924 46.1549C44.8252 46.2721 44.7424 46.3797 44.6464 46.4748C60.4333 42.3281 54.6255 31.8445 47.0827 34.5023C46.6753 34.652 46.3233 34.9225 46.0737 35.2775C46.5142 35.1181 46.9668 34.9947 47.4272 34.9084C51.2417 34.1086 56.7173 40.0148 44.8924 46.1549ZM50.6953 53.8207C50.6953 53.8207 52.4795 55.285 48.7389 56.4293C41.6145 58.5826 19.1092 59.2348 12.8584 56.5154C10.6067 55.5434 14.8272 54.1775 16.1561 53.8945C17.5342 53.5992 18.334 53.6484 18.334 53.6484C15.8362 51.8889 2.17795 57.1061 11.3942 58.5949C36.5253 62.6801 57.2168 56.7615 50.6953 53.8207ZM23.187 48.7266C13.5032 51.4336 29.0809 57.0199 41.4102 51.7412C40.2078 51.2741 39.047 50.706 37.9403 50.0432C32.4401 51.0891 29.893 51.1629 24.8973 50.5969C20.7753 50.1293 23.187 48.7266 23.187 48.7266ZM45.3108 60.6867C35.627 62.5078 23.6792 62.2986 16.604 61.1297C16.604 61.1174 18.0559 62.3232 25.5126 62.8031C36.8575 63.5291 54.2809 62.3971 54.687 57.0322C54.687 57.0322 53.8995 59.0625 45.3108 60.6867ZM39.946 43.4355C32.6616 44.8383 28.4411 44.8014 23.1131 44.2477C18.9911 43.817 21.6858 41.8236 21.6858 41.8236C11.0053 45.3674 27.6167 49.3787 42.5422 45.0105C41.5776 44.6699 40.6937 44.1337 39.946 43.4355Z" fill="white"/>
</g>
<defs>
<clipPath id="clip0_109_286">
<rect width="63" height="63" fill="white"/>
</clipPath>
</defs>
</svg>
