<svg width="63" height="63" viewBox="0 0 63 63" fill="none" xmlns="http://www.w3.org/2000/svg">
<path d="M53.1562 3.9375H9.84375C6.58301 3.9375 3.9375 6.58301 3.9375 9.84375V53.1562C3.9375 56.417 6.58301 59.0625 9.84375 59.0625H53.1562C56.417 59.0625 59.0625 56.417 59.0625 53.1562V9.84375C59.0625 6.58301 56.417 3.9375 53.1562 3.9375ZM33.9363 46.9301C33.9363 52.2949 30.7863 54.7436 26.1967 54.7436C22.05 54.7436 19.6506 52.6025 18.4201 50.0062L22.6406 47.4592C23.4527 48.8988 24.191 50.117 25.9752 50.117C27.6732 50.117 28.7561 49.4525 28.7561 46.8562V29.2482H33.9363V46.9301ZM46.1918 54.7436C41.3807 54.7436 38.2676 52.4549 36.7541 49.4525L40.9746 47.0162C42.082 48.825 43.534 50.1662 46.0811 50.1662C48.2221 50.1662 49.6002 49.0957 49.6002 47.6068C49.6002 45.835 48.1975 45.2074 45.8227 44.1615L44.5307 43.6078C40.79 42.0205 38.3168 40.0148 38.3168 35.7943C38.3168 31.9061 41.2822 28.9529 45.8965 28.9529C49.1941 28.9529 51.5566 30.0973 53.2547 33.0996L49.2188 35.6836C48.3328 34.0963 47.373 33.4688 45.8842 33.4688C44.3707 33.4688 43.4109 34.4285 43.4109 35.6836C43.4109 37.234 44.3707 37.8615 46.5979 38.8336L47.8898 39.3873C52.2949 41.2699 54.7682 43.2018 54.7682 47.533C54.7682 52.1842 51.1014 54.7436 46.1918 54.7436Z" fill="white"/>
</svg>
