<svg width="63" height="63" viewBox="0 0 63 63" fill="none" xmlns="http://www.w3.org/2000/svg">
<path d="M31.1358 50.7938C30.9291 50.7938 30.7223 50.7348 30.5353 50.6363L28.6453 49.5141C28.3598 49.3566 28.4977 49.2976 28.5961 49.2681C28.9702 49.1401 29.0489 49.1106 29.4525 48.8743C29.4919 48.8546 29.5509 48.8645 29.5903 48.8841L31.0472 49.7504C31.0964 49.7799 31.1752 49.7799 31.2244 49.7504L36.9141 46.4626C36.9633 46.4331 37.0027 46.374 37.0027 46.3051V39.7393C37.0027 39.6704 36.9731 39.6113 36.9141 39.5818L31.2244 36.3038C31.1752 36.2743 31.1063 36.2743 31.0472 36.3038L25.3575 39.5818C25.2984 39.6113 25.2689 39.6802 25.2689 39.7393V46.3051C25.2689 46.3641 25.3083 46.4232 25.3575 46.4527L26.9128 47.3485C27.7594 47.7718 28.2811 47.2698 28.2811 46.7776V40.2906C28.2811 40.202 28.35 40.1232 28.4484 40.1232H29.167C29.2556 40.1232 29.3344 40.1921 29.3344 40.2906V46.7776C29.3344 47.9096 28.7241 48.5495 27.6511 48.5495C27.3263 48.5495 27.0605 48.5495 26.3419 48.1951L24.8456 47.3387C24.4814 47.1221 24.2452 46.7284 24.2452 46.3051V39.7393C24.2452 39.316 24.4716 38.9124 24.8456 38.7057L30.5353 35.4179C30.8995 35.2112 31.372 35.2112 31.7264 35.4179L37.4161 38.7057C37.7803 38.9223 38.0166 39.316 38.0166 39.7393V46.3051C38.0166 46.7284 37.7902 47.132 37.4161 47.3387L31.7264 50.6265C31.5591 50.7348 31.3523 50.7938 31.1358 50.7938ZM35.7328 44.3166C35.7328 43.0862 34.9059 42.7613 33.1538 42.5251C31.3819 42.2888 31.2047 42.1707 31.2047 41.7573C31.2047 41.4127 31.3523 40.9599 32.6616 40.9599C33.833 40.9599 34.2661 41.2159 34.4433 42.0034C34.463 42.0821 34.522 42.1313 34.6008 42.1313H35.3391C35.3883 42.1313 35.4277 42.1116 35.4572 42.0821C35.4867 42.0427 35.5064 42.0034 35.4966 41.9541C35.3784 40.5957 34.4827 39.9657 32.6616 39.9657C31.0373 39.9657 30.0727 40.6548 30.0727 41.7966C30.0727 43.0468 31.0373 43.3815 32.5927 43.539C34.4531 43.726 34.6008 43.9918 34.6008 44.356C34.6008 44.9959 34.0889 45.2616 32.888 45.2616C31.3819 45.2616 31.0472 44.8876 30.9389 44.1395C30.9291 44.0607 30.8602 44.0016 30.7716 44.0016H30.0333C29.9447 44.0016 29.8659 44.0706 29.8659 44.169C29.8659 45.1238 30.3877 46.2657 32.8781 46.2657C34.6992 46.2657 35.7328 45.557 35.7328 44.3166ZM41.0977 39.3849C41.0977 39.9854 40.6055 40.4776 40.005 40.4776C39.4045 40.4776 38.9123 39.9854 38.9123 39.3849C38.9123 38.7648 39.4242 38.2923 40.005 38.2923C40.5956 38.2824 41.0977 38.7648 41.0977 39.3849ZM40.9205 39.3849C40.9205 38.8731 40.507 38.4695 39.9952 38.4695C39.4931 38.4695 39.0797 38.8731 39.0797 39.3849C39.0797 39.8968 39.4931 40.3102 39.9952 40.3102C40.507 40.3004 40.9205 39.887 40.9205 39.3849ZM40.4775 39.9952H40.2216C40.2117 39.9362 40.1723 39.6212 40.1723 39.6113C40.1527 39.5424 40.133 39.5031 40.0444 39.5031H39.8278V39.9952H39.5916V38.7648H40.0148C40.1625 38.7648 40.448 38.7648 40.448 39.0896C40.448 39.316 40.3003 39.3652 40.2117 39.3948C40.3791 39.4046 40.3889 39.5129 40.4184 39.6704C40.4283 39.7688 40.448 39.9362 40.4775 39.9952ZM40.2019 39.129C40.2019 38.9616 40.0838 38.9616 40.0247 38.9616H39.8278V39.3062H40.0148C40.1723 39.3062 40.2019 39.1979 40.2019 39.129ZM13.5155 25.1016C13.5155 24.8359 13.3777 24.5996 13.1513 24.4716L7.11703 20.9968C7.01859 20.9377 6.90047 20.9082 6.78234 20.8984H6.72328C6.60516 20.8984 6.49688 20.9377 6.38859 20.9968L0.364219 24.4716C0.137813 24.5996 0 24.8457 0 25.1016L0.00984375 34.4532C0.00984375 34.5812 0.07875 34.6993 0.187031 34.7682C0.295313 34.8371 0.433125 34.8371 0.55125 34.7682L4.13438 32.7109C4.36078 32.5731 4.49859 32.3368 4.49859 32.0809V27.7102C4.49859 27.4543 4.63641 27.2082 4.86281 27.0802L6.38859 26.2041C6.50672 26.1352 6.62484 26.1057 6.75281 26.1057C6.88078 26.1057 7.00875 26.1352 7.11703 26.2041L8.64281 27.0802C8.86922 27.2082 9.00703 27.4543 9.00703 27.7102V32.0809C9.00703 32.3368 9.14484 32.5829 9.37125 32.7109L12.9544 34.7682C13.0627 34.8371 13.2103 34.8371 13.3186 34.7682C13.4269 34.7091 13.4958 34.5812 13.4958 34.4532L13.5155 25.1016ZM46.5117 14.8937V32.2581C46.5117 32.514 46.3739 32.7601 46.1475 32.8881L40.1133 36.3727C39.8869 36.5007 39.6113 36.5007 39.3848 36.3727L33.3506 32.8881C33.1242 32.7601 32.9864 32.514 32.9864 32.2581V25.2887C32.9864 25.0327 33.1242 24.7866 33.3506 24.6587L39.3848 21.174C39.6113 21.046 39.8869 21.046 40.1133 21.174L41.6194 22.0402C41.7867 22.1387 42.0033 22.0107 42.0033 21.8237V12.5706C42.0033 12.2949 42.2986 12.1177 42.5447 12.2556L46.1377 14.2637C46.3641 14.3818 46.5117 14.6279 46.5117 14.8937ZM41.9836 27.5823C41.9836 27.5134 41.9442 27.4543 41.895 27.4248L39.8278 26.2238C39.7688 26.1943 39.6998 26.1943 39.6408 26.2238L37.5736 27.4248C37.5145 27.4543 37.485 27.5134 37.485 27.5823V29.9743C37.485 30.0432 37.5244 30.1023 37.5736 30.1318L39.6408 31.3229C39.6998 31.3524 39.7688 31.3524 39.818 31.3229L41.8852 30.1318C41.9442 30.1023 41.9738 30.0432 41.9738 29.9743V27.5823H41.9836ZM62.6358 27.5134C62.8622 27.3854 63 27.1393 63 26.8834V25.2001C63 24.9441 62.8622 24.6981 62.6358 24.5701L56.6409 21.0854C56.4145 20.9574 56.1389 20.9574 55.9125 21.0854L49.8783 24.5701C49.6519 24.6981 49.5141 24.9441 49.5141 25.2001V32.1695C49.5141 32.4352 49.6519 32.6715 49.8783 32.7995L55.8731 36.2152C56.0897 36.3432 56.3653 36.3432 56.5917 36.2152L60.2142 34.1973C60.4603 34.0595 60.4603 33.7051 60.2142 33.5673L54.1406 30.0826C54.0225 30.0137 53.9536 29.8956 53.9536 29.7676V27.5823C53.9536 27.4543 54.0225 27.3362 54.1406 27.2673L56.0306 26.1746C56.1389 26.1057 56.2866 26.1057 56.3948 26.1746L58.2848 27.2673C58.3931 27.3362 58.4719 27.4543 58.4719 27.5823V29.2951C58.4719 29.5707 58.777 29.7479 59.0231 29.6101L62.6358 27.5134ZM55.0266 27.8579C54.9872 27.8874 54.9577 27.9268 54.9577 27.976V29.3148C54.9577 29.364 54.9872 29.4132 55.0266 29.4329L56.1881 30.1023C56.2275 30.1318 56.2866 30.1318 56.3259 30.1023L57.4875 29.4329C57.5269 29.4034 57.5564 29.364 57.5564 29.3148V27.976C57.5564 27.9268 57.5269 27.8776 57.4875 27.8579L56.3259 27.1885C56.2866 27.159 56.2275 27.159 56.1881 27.1885L55.0266 27.8579ZM30.0037 32.1399V25.2099C30.0037 24.954 29.8463 24.7079 29.6198 24.5799L23.6053 21.1149C23.3986 20.9968 23.1131 20.9771 22.8769 21.1149L16.8623 24.5799C16.6359 24.7079 16.4784 24.9441 16.4784 25.2099V32.1399C16.4784 32.4156 16.6655 32.6518 16.8722 32.7699L22.8966 36.2349C23.1328 36.3727 23.4084 36.3629 23.625 36.2349L29.6297 32.7699C29.8069 32.6715 29.9348 32.5041 29.9841 32.3073C29.9939 32.2581 30.0037 32.199 30.0037 32.1399ZM22.6898 19.8451L22.6111 19.8943H22.7194L22.6898 19.8451ZM30.1908 32.6616L30.1514 32.5927V32.6813L30.1908 32.6616Z" fill="white"/>
</svg>
