<svg width="63" height="63" viewBox="0 0 63 63" fill="none" xmlns="http://www.w3.org/2000/svg">
<path d="M51.4582 21.8038C50.7938 21.5823 50.1293 21.3732 49.4648 21.1763C49.5756 20.721 49.674 20.2657 49.7725 19.8105C51.2859 12.4769 50.2893 6.58293 46.9301 4.63879C43.6939 2.78079 38.4152 4.71262 33.075 9.36379C32.5459 9.81907 32.0291 10.2989 31.5369 10.7788C31.2047 10.4589 30.8602 10.139 30.5156 9.83137C24.917 4.86028 19.3061 2.76848 15.9469 4.72493C12.723 6.59524 11.7633 12.1447 13.1168 19.0845C13.2521 19.7736 13.3998 20.4503 13.5721 21.1394C12.7846 21.3609 12.0094 21.607 11.2834 21.8654C4.71269 24.1417 0 27.7347 0 31.4507C0 35.2898 5.02031 39.1411 11.8494 41.479C12.4031 41.6636 12.9568 41.8482 13.5229 42.0081C13.3383 42.7464 13.1783 43.4724 13.0307 44.223C11.7387 51.0521 12.7477 56.4661 15.9715 58.3241C19.2938 60.2437 24.8801 58.2749 30.3187 53.513C30.7494 53.1316 31.1801 52.7378 31.6107 52.3195C32.1521 52.8486 32.7182 53.353 33.2842 53.8452C38.5506 58.3734 43.7555 60.2068 46.967 58.3488C50.2893 56.4292 51.3721 50.6091 49.9693 43.5216C49.8586 42.9802 49.7355 42.4265 49.6002 41.8605C49.9939 41.7497 50.3754 41.6267 50.7568 41.5036C57.8566 39.1534 63 35.3513 63 31.4507C63 27.7224 58.152 24.1048 51.4582 21.8038ZM34.81 11.3572C39.3873 7.37043 43.657 5.80774 45.6012 6.92746C47.6807 8.12102 48.4805 12.9445 47.1762 19.2814C47.09 19.6997 47.0039 20.1058 46.8932 20.5118C44.1615 19.8966 41.393 19.4536 38.6121 19.2075C37.0125 16.9189 35.2652 14.7286 33.3703 12.6738C33.8502 12.2185 34.3178 11.7878 34.81 11.3572ZM20.5734 37.8368C21.201 38.9073 21.8408 39.9779 22.5176 41.0238C20.598 40.8146 18.6908 40.507 16.8082 40.1009C17.3496 38.329 18.0264 36.4956 18.8139 34.6253C19.3799 35.7081 19.9582 36.7786 20.5734 37.8368ZM16.8451 23.0343C18.617 22.6405 20.4996 22.3206 22.4561 22.0745C21.8039 23.0958 21.1641 24.1417 20.5611 25.1999C19.9582 26.2458 19.3676 27.3163 18.8139 28.3991C18.0387 26.5657 17.3865 24.7693 16.8451 23.0343ZM20.2166 31.5122C21.0287 29.8142 21.9146 28.153 22.8498 26.5165C23.785 24.88 24.7939 23.2927 25.8521 21.73C27.6979 21.5947 29.5805 21.5208 31.5 21.5208C33.4195 21.5208 35.3145 21.5947 37.1479 21.73C38.1937 23.2804 39.1904 24.8677 40.1379 26.4919C41.0854 28.1161 41.9713 29.7773 42.808 31.463C41.9836 33.1611 41.0977 34.8345 40.1502 36.4833C39.215 38.1198 38.2184 39.7071 37.1725 41.2822C35.3391 41.4175 33.4318 41.479 31.5 41.479C29.5682 41.479 27.6979 41.4175 25.8891 41.3068C24.8186 39.7441 23.8096 38.1445 22.8621 36.5079C21.9146 34.8714 21.041 33.2103 20.2166 31.5122ZM42.4389 37.8122C43.0664 36.7294 43.657 35.6343 44.2354 34.5269C45.0229 36.3111 45.7119 38.1198 46.3148 39.9779C44.4076 40.4085 42.4758 40.7407 40.5316 40.9622C41.1961 39.9286 41.8236 38.8704 42.4389 37.8122ZM44.2107 28.3991C43.6324 27.3163 43.0418 26.2335 42.4266 25.1753C41.8236 24.1294 41.1961 23.0958 40.5439 22.0745C42.525 22.3206 44.4199 22.6529 46.1918 23.0589C45.6258 24.88 44.9613 26.6519 44.2107 28.3991ZM31.5246 14.5564C32.8166 15.9591 34.0348 17.4357 35.1668 18.9614C32.7305 18.8507 30.2818 18.8507 27.8455 18.9614C29.0514 17.3741 30.2941 15.8976 31.5246 14.5564ZM17.2512 7.0136C19.3184 5.80774 23.908 7.53039 28.7438 11.8124C29.0514 12.0831 29.359 12.3784 29.6789 12.6738C27.7717 14.7286 26.0121 16.9189 24.4002 19.2075C21.6193 19.4536 18.8631 19.8843 16.1314 20.4872C15.9715 19.8597 15.8361 19.2198 15.7008 18.58C14.5441 12.6245 15.307 8.13332 17.2512 7.0136ZM14.2365 39.4488C13.7197 39.3011 13.2152 39.1411 12.7107 38.9689C10.0898 38.1445 7.11211 36.8402 4.95879 35.1298C3.71602 34.2685 2.8793 32.9396 2.64551 31.4507C2.64551 29.1989 6.53379 26.3197 12.1447 24.3632C12.8461 24.1171 13.5598 23.8956 14.2734 23.6864C15.1102 26.3566 16.1191 28.9775 17.2881 31.5122C16.1068 34.0839 15.0855 36.7417 14.2365 39.4488ZM28.5838 51.5073C26.5535 53.3654 24.2033 54.8419 21.6439 55.8509C20.2781 56.503 18.7031 56.5646 17.3004 56.0109C15.3439 54.8788 14.5318 50.5353 15.6393 44.6905C15.7746 44.0015 15.9223 43.3124 16.0945 42.6357C18.8508 43.2263 21.6316 43.6323 24.4494 43.8415C26.0736 46.1425 27.8578 48.345 29.765 50.4122C29.3713 50.7937 28.9775 51.1628 28.5838 51.5073ZM31.5984 48.5173C30.3434 47.1638 29.0883 45.6626 27.8701 44.0507C29.0514 44.0999 30.2695 44.1245 31.5 44.1245C32.7674 44.1245 34.0102 44.0999 35.2406 44.0384C34.1086 45.6011 32.8904 47.09 31.5984 48.5173ZM47.6807 52.2087C47.5699 53.7099 46.8316 55.1126 45.6504 56.0601C43.6939 57.1921 39.5227 55.7155 35.0191 51.8519C34.5023 51.4089 33.9855 50.929 33.4564 50.4368C35.3391 48.3573 37.074 46.1548 38.649 43.8415C41.4668 43.6077 44.2723 43.1771 47.0408 42.5495C47.1639 43.054 47.2746 43.5585 47.373 44.0507C47.976 46.7085 48.0744 49.4771 47.6807 52.2087ZM49.9201 38.9812C49.5756 39.0919 49.2311 39.2027 48.8742 39.3011C48.0129 36.6187 46.9547 33.9978 45.7365 31.4507C46.9178 28.9405 47.9145 26.3566 48.7512 23.7111C49.391 23.8956 50.0063 24.0925 50.5969 24.2894C56.3309 26.2581 60.3545 29.1866 60.3545 31.4261C60.3545 33.8378 56.0602 36.9509 49.9201 38.9812ZM31.5 37.1355C34.6131 37.1355 37.1355 34.613 37.1355 31.4999C37.1355 28.3868 34.6131 25.8644 31.5 25.8644C28.3869 25.8644 25.8645 28.3868 25.8645 31.4999C25.8645 34.613 28.3869 37.1355 31.5 37.1355Z" fill="white"/>
</svg>
